<?xml version="1.0" standalone="no"?>
<svg xmlns="http://www.w3.org/2000/svg" viewBox="0 0 171.912 36" width="171.912" height="36"><g fill="#ff6161" color="#ff6161" transform="translate(0 3.9999999999999982) scale(0.2800001)"><svg width="100.0" height="100.0" x="0.0" y="0.0" viewBox="0 0 100 100"><g><path fill="currentColor" d="M90,35H65V10c0-2.759-2.241-5-5-5H40c-2.761,0-5,2.241-5,5v25H10c-2.761,0-5,2.241-5,5v20   c0,2.759,2.239,5,5,5h25v25c0,2.759,2.239,5,5,5h20c2.759,0,5-2.241,5-5V65h25c2.759,0,5-2.241,5-5V40C95,37.241,92.759,35,90,35"></path></g></svg></g><path fill="#0b0cac" fill-rule="nonzero" d="M0 10.01L0 10.01L0 7.90Q0 4.56 1.75 2.69Q3.50 0.82 6.60 0.82Q9.70 0.82 11.57 2.69L11.57 2.69Q12.89 4.01 12.89 6.65L12.89 6.65L9.77 6.65Q9.77 3.79 6.72 3.79L6.72 3.79Q5.81 3.79 5.17 4.14Q4.54 4.49 4.22 4.94Q3.91 5.40 3.74 6.29Q3.58 7.18 3.55 7.78Q3.53 8.38 3.53 9.38Q3.53 10.39 3.54 10.74Q3.55 11.09 3.61 11.87Q3.67 12.65 3.80 12.98Q3.94 13.32 4.19 13.85Q4.44 14.38 4.82 14.59L4.82 14.59Q5.81 15.22 7.06 15.22L7.06 15.22Q9.14 15.22 10.01 13.44L10.01 13.44L10.01 12.29L7.94 12.29L7.94 9.50L12.86 9.50L12.86 14.66Q12.12 16.42 10.51 17.30Q8.90 18.19 6.86 18.19L6.86 18.19Q3.24 18.19 1.62 16.16Q0 14.14 0 10.01ZM19.10 0L19.10 18.05L15.98 18.07L15.98 0L19.10 0ZM29.88 11.86L29.88 11.86L29.88 10.61Q29.88 8.83 29.36 7.90Q28.85 6.96 27.22 6.96L27.22 6.96Q24.58 6.96 24.58 10.51L24.58 10.51L24.58 11.76Q24.58 15.58 27.22 15.58L27.22 15.58Q28.92 15.58 29.45 14.30L29.45 14.30Q29.88 13.30 29.88 11.86ZM33 11.14L33 11.14Q33 15.58 31.32 17.09L31.32 17.09Q29.90 18.38 27.22 18.38L27.22 18.38Q23.78 18.38 22.58 16.37L22.58 16.37Q21.46 14.52 21.46 11.14L21.46 11.14Q21.46 7.97 22.58 6.17L22.58 6.17Q23.83 4.15 27.13 4.15Q30.43 4.15 31.72 5.92Q33 7.68 33 11.14ZM41.35 18.07L41.35 18.07L38.64 18.05Q36.84 18.05 35.92 16.99Q34.99 15.94 34.99 14.47L34.99 14.47L34.99 0L38.11 0L38.11 6.05L41.83 4.32Q43.97 4.32 44.98 5.47L44.98 5.47Q45.86 6.50 46.08 8.81L46.08 8.81Q46.15 9.77 46.15 11.18L46.15 11.18Q46.15 18.07 41.35 18.07ZM38.90 15.38L38.90 15.38L40.44 15.38Q43.03 15.38 43.03 11.18L43.03 11.18Q43.03 9.05 42.64 8.21Q42.24 7.37 40.92 7.37L40.92 7.37L38.11 8.88L38.11 14.28Q38.11 15.24 38.90 15.38ZM58.37 4.25L58.37 18.05L56.28 18.05L55.32 16.39L51.98 18.19Q49.20 18.19 48.24 16.18L48.24 16.18Q47.76 15.19 47.58 14.05Q47.40 12.91 47.40 11.68Q47.40 10.44 47.42 9.85Q47.45 9.26 47.54 8.48Q47.64 7.70 47.82 7.18Q48 6.65 48.34 6.08Q48.67 5.52 49.15 5.18L49.15 5.18Q50.23 4.44 51.96 4.44L51.96 4.44L55.25 4.44L58.37 4.25ZM52.87 14.90L55.25 13.68L55.25 7.25L52.87 7.25Q51.55 7.25 51.04 8.26Q50.52 9.26 50.52 11.27Q50.52 13.27 51.01 14.09Q51.50 14.90 52.87 14.90L52.87 14.90ZM64.75 0L64.75 18.05L61.63 18.07L61.63 0L64.75 0ZM81.05 0.96L81.05 18.05L77.71 18.05L77.71 11.14L71.45 11.14L71.45 18.05L68.11 18.05L68.11 0.96L71.45 0.96L71.45 8.18L77.71 8.18L77.71 0.96L81.05 0.96ZM94.82 11.93L94.82 11.93L86.83 11.93Q86.83 13.80 87.42 14.66Q88.01 15.53 89.78 15.53L89.78 15.53Q90.94 15.53 91.49 14.80Q92.04 14.06 92.04 13.39L92.04 13.39L94.85 13.39Q94.85 15.96 93.47 17.16Q92.09 18.36 89.82 18.36Q87.55 18.36 86.30 17.71L86.30 17.71Q83.74 16.39 83.74 10.70L83.74 10.70Q83.74 7.32 85.20 5.75Q86.66 4.18 89.66 4.18L89.66 4.18Q94.87 4.18 94.87 9.96L94.87 9.96Q94.87 10.58 94.82 11.93ZM86.90 9.79L86.90 9.79L92.04 9.79Q92.04 8.21 91.44 7.49Q90.84 6.77 89.60 6.77Q88.37 6.77 87.64 7.50Q86.90 8.23 86.90 9.79ZM107.14 4.25L107.14 18.05L105.05 18.05L104.09 16.39L100.75 18.19Q97.97 18.19 97.01 16.18L97.01 16.18Q96.53 15.19 96.35 14.05Q96.17 12.91 96.17 11.68Q96.17 10.44 96.19 9.85Q96.22 9.26 96.31 8.48Q96.41 7.70 96.59 7.18Q96.77 6.65 97.10 6.08Q97.44 5.52 97.92 5.18L97.92 5.18Q99 4.44 100.73 4.44L100.73 4.44L104.02 4.44L107.14 4.25ZM101.64 14.90L104.02 13.68L104.02 7.25L101.64 7.25Q100.32 7.25 99.80 8.26Q99.29 9.26 99.29 11.27Q99.29 13.27 99.78 14.09Q100.27 14.90 101.64 14.90L101.64 14.90ZM113.52 0L113.52 18.05L110.40 18.07L110.40 0L113.52 0ZM122.74 15.41L122.74 18.05L120.79 18.05Q119.02 18.05 118.09 16.99Q117.17 15.94 117.17 14.47L117.17 14.47L117.17 7.27L115.85 7.27L115.85 4.90L117.17 4.90L117.17 2.21L120.29 2.21L120.29 4.90L122.50 4.90L122.50 7.27L120.29 7.27L120.29 14.28Q120.29 15.41 121.37 15.41L121.37 15.41L122.74 15.41ZM135.91 8.76L135.91 18.05L132.79 18.05L132.79 9.46Q132.79 7.25 131.06 7.25L131.06 7.25L128.09 8.42L128.09 18.05L124.97 18.05L124.97 0L128.09 0L128.09 5.98L132.05 4.20Q134.16 4.20 135.04 5.40Q135.91 6.60 135.91 8.76L135.91 8.76Z" transform="translate(36, 8.808)"></path></svg>